<?xml version="1.0" encoding="utf-8"?>
<!-- Generator: Adobe Illustrator 19.2.0, SVG Export Plug-In . SVG Version: 6.00 Build 0)  -->
<svg version="1.1" id="Calque_1" xmlns="http://www.w3.org/2000/svg" xmlns:xlink="http://www.w3.org/1999/xlink" x="0px" y="0px"
	 viewBox="0 0 800 406" style="enable-background:new 0 0 800 406;" xml:space="preserve">
<style type="text/css">
	.st0{fill:#FFFFFF;stroke:#000000;stroke-miterlimit:10;}
	.st1{fill:none;stroke:#404040;stroke-width:4;stroke-miterlimit:10;}
	.st2{fill:#B18BE8;stroke:#404040;stroke-width:4;stroke-linecap:round;stroke-linejoin:round;stroke-miterlimit:10;}
	.st3{fill:none;stroke:#404040;stroke-width:4;stroke-linecap:round;stroke-linejoin:round;stroke-miterlimit:10;}
	.st4{fill:#B3E3FF;stroke:#404040;stroke-width:4;stroke-miterlimit:10;}
	.st5{fill:#FFFFFF;stroke:#404040;stroke-width:4;stroke-miterlimit:10;}
	.st6{fill:#4ED1A1;stroke:#404040;stroke-width:4;stroke-miterlimit:10;}
	.st7{fill:#4CD3D6;stroke:#404040;stroke-width:4;stroke-linejoin:round;stroke-miterlimit:10;}
	.st8{fill:#FFFFFF;stroke:#404040;stroke-width:4;stroke-linecap:round;stroke-linejoin:round;stroke-miterlimit:10;}
	.st9{fill:#B18BE8;stroke:#404040;stroke-width:4;stroke-miterlimit:10;}
</style>
<rect class="st0" width="800" height="406"/>
<g id="centralized_x5F_workflow_x5F_1">
	<path class="st1" d="M247.2,221.4h107.2c11.6,0,21-9.4,21-21v-38.9"/>
	<path class="st2" d="M400.4,161.5v117.7"/>
	<path class="st1" d="M553.6,221.4H446.4c-11.6,0-21-9.4-21-21v-38.9"/>
	<path class="st3" d="M247.2,221.4c-11.6,0-21,9.4-21,21v36.9 M553.6,221.4c11.6,0,21,9.4,21,21v36.9"/>
	<path id="repo1_218_" class="st4" d="M337.7,114.6c0-12.4,28.2-22.4,63-22.4s63,10,63,22.4 M337.7,114.6v27.9c0,3,1.7,5.9,4.7,8.5
		c9.4,8.2,32,13.9,58.3,13.9c26.4,0,48.9-5.8,58.3-13.9c3-2.6,4.7-5.5,4.7-8.5v-27.9"/>
	<path class="st5" d="M463.7,114.6c0,12.4-28.2,22.4-63,22.4s-63-10-63-22.4s28.2-22.4,63-22.4S463.7,102.2,463.7,114.6z"/>
	<path id="repo1_217_" class="st4" d="M337.7,86.7c0-12.4,28.2-22.4,63-22.4s63,10,63,22.4 M337.7,86.7v27.9c0,3,1.7,5.9,4.7,8.5
		c9.4,8.2,32,13.9,58.3,13.9c26.4,0,48.9-5.8,58.3-13.9c3-2.6,4.7-5.5,4.7-8.5V86.7"/>
	<path class="st5" d="M463.7,86.7c0,12.4-28.2,22.4-63,22.4s-63-10-63-22.4s28.2-22.4,63-22.4S463.7,74.3,463.7,86.7z"/>
	<path id="repo1_216_" class="st4" d="M337.7,58.8c0-12.4,28.2-22.4,63-22.4s63,10,63,22.4 M337.7,58.8v27.9c0,3,1.7,5.9,4.7,8.5
		c9.4,8.2,32,13.9,58.3,13.9c26.4,0,48.9-5.8,58.3-13.9c3-2.6,4.7-5.5,4.7-8.5V58.8"/>
	<path class="st5" d="M463.7,58.8c0,12.4-28.2,22.4-63,22.4s-63-10-63-22.4s28.2-22.4,63-22.4S463.7,46.4,463.7,58.8z"/>
	<path id="repo1_215_" class="st4" d="M337.7,30.9c0-12.4,28.2-22.4,63-22.4s63,10,63,22.4 M337.7,30.9v27.9c0,3,1.7,5.9,4.7,8.5
		c9.4,8.2,32,13.9,58.3,13.9c26.4,0,48.9-5.8,58.3-13.9c3-2.6,4.7-5.5,4.7-8.5V30.9"/>
	<path class="st5" d="M463.7,30.9c0,12.4-28.2,22.4-63,22.4s-63-10-63-22.4s28.2-22.4,63-22.4S463.7,18.5,463.7,30.9z"/>
	<path class="st3" d="M557.2,348.6c3.1,6.8,9.9,11.2,17.3,11.2c7.5,0,14.3-4.4,17.4-11.3"/>
	<path class="st6" d="M574.1,392.8c0,0,27.4,0.8,37.7-5.2c17-9.9-0.3-30.2-13.7-33.6c-4.1,7.7-13.3,13-24,13h0.3
		c-10.7,0-19.8-5.4-24-13c-13.4,3.4-30.7,23.8-13.7,33.6c10.3,6,37.7,5.2,37.7,5.2"/>
	<circle class="st6" cx="574.5" cy="323.1" r="23"/>
	<path class="st5" d="M558.9,306.2c2.6,20,34.1,7.2,38,21.8c-2.2,10.4-11.4,18.2-22.5,18.2c-12.7,0-23-10.3-23-23
		c0-1.3,0.1-2.6,0.3-3.9C552.9,319.3,559.8,323.1,558.9,306.2z"/>
	<path class="st3" d="M587,343.4V354 M562.4,354v-10.3 M208.7,346.5c3.1,6.8,9.9,11.2,17.3,11.2c7.5,0,14.3-4.4,17.4-11.3"/>
	<path class="st7" d="M225.6,390.8c0,0,27.4,0.8,37.7-5.2c17-9.9-0.3-30.2-13.7-33.6c-4.1,7.7-13.3,13-24,13h0.3
		c-10.7,0-19.8-5.4-24-13c-13.4,3.4-30.7,23.8-13.7,33.6c10.3,6,37.7,5.2,37.7,5.2"/>
	<circle class="st7" cx="226" cy="321.1" r="23"/>
	<path class="st5" d="M236.7,308.9c2.6,20,7.9,2.4,11.8,17c-2.2,10.4-11.4,18.2-22.5,18.2c-12.7,0-23-10.3-23-23
		c0-1.3,0.1-2.6,0.3-3.9C204.4,317.3,229.6,328.3,236.7,308.9L236.7,308.9z"/>
	<path class="st3" d="M238.6,341.4v10.5 M214,352v-10.3"/>
	<path class="st8" d="M382.7,347.6c3.1,6.8,9.9,11.2,17.3,11.2c7.5,0,14.3-4.4,17.4-11.3"/>
	<path class="st9" d="M400.1,391.8c0,0,27.4,0.8,37.7-5.2c17-9.9-0.3-30.2-13.7-33.6c-4.1,7.7-13.3,13-24,13h0.3
		c-10.7,0-19.8-5.4-24-13c-13.4,3.4-30.7,23.8-13.7,33.6c10.3,6,37.7,5.2,37.7,5.2"/>
	<circle class="st9" cx="400" cy="322.1" r="23"/>
	<path class="st8" d="M410.1,301.4c-6.7,17.2-19.4,0.5-32.6,25.5c2.2,10.4,11.4,18.2,22.5,18.2c12.7,0,23-10.3,23-23
		C423,320.8,411.9,316.2,410.1,301.4z M412.6,341.4V353 M388,353v-11.3"/>
	<path class="st9" d="M377,322.6c0,0,0,10.6,4.6,14.5c-3.6,1.7-11.6-0.9-10.5-1.7C375.6,332.3,377,322.6,377,322.6z M423,322.1
		c0,0-0.2,11.1-4.8,15c3.6,1.7,11.6-0.9,10.5-1.7C424.2,332.3,423,322.1,423,322.1z"/>
</g>
</svg>
