<?xml version="1.0" encoding="utf-8"?>
<!-- Generator: Adobe Illustrator 19.2.0, SVG Export Plug-In . SVG Version: 6.00 Build 0)  -->
<svg version="1.1" id="Calque_1" xmlns="http://www.w3.org/2000/svg" xmlns:xlink="http://www.w3.org/1999/xlink" x="0px" y="0px"
	 viewBox="0 0 800 444" style="enable-background:new 0 0 800 444;" xml:space="preserve">
<style type="text/css">
	.st0{fill:#FFFFFF;stroke:#000000;stroke-miterlimit:10;}
	.st1{fill:#B18BE8;stroke:#404040;stroke-width:4;stroke-miterlimit:10;}
	.st2{fill:#FFFFFF;stroke:#6693ED;stroke-width:4;stroke-miterlimit:10;}
	.st3{fill:#FFFFFF;stroke:#404040;stroke-width:4;stroke-miterlimit:10;}
	.st4{fill:#B3E3FF;stroke:#404040;stroke-width:4;stroke-miterlimit:10;}
	.st5{fill:#4ED1A1;stroke:#404040;stroke-width:4;stroke-miterlimit:10;}
	.st6{fill:none;stroke:#404040;stroke-width:4;stroke-linecap:round;stroke-linejoin:round;stroke-miterlimit:10;}
	.st7{fill:#FFFFFF;stroke:#404040;stroke-width:4;stroke-linecap:round;stroke-linejoin:round;stroke-miterlimit:10;}
	.st8{fill:none;stroke:#A97CDD;stroke-width:4;stroke-linecap:round;stroke-linejoin:round;stroke-miterlimit:10;}
	.st9{fill:none;stroke:#B3E3FF;stroke-width:4;stroke-linecap:round;stroke-linejoin:round;stroke-miterlimit:10;}
	.st10{fill:none;stroke:#4ED1A1;stroke-width:4;stroke-linecap:round;stroke-miterlimit:10;}
	.st11{fill:none;stroke:#4ED1A1;stroke-width:4;stroke-linecap:round;stroke-linejoin:round;stroke-miterlimit:10;}
</style>
<rect class="st0" width="800" height="444"/>
<g id="centralized_x5F_workflow_x5F_1_1_">
	<path id="repo1_230_" class="st1" d="M125.2,118.2c0-12.4,28.2-22.4,63-22.4s63,10,63,22.4 M125.2,118.2v27.9c0,3,1.7,5.9,4.7,8.5
		c9.4,8.2,32,13.9,58.3,13.9c26.4,0,48.9-5.8,58.3-13.9c3-2.6,4.7-5.5,4.7-8.5v-27.9"/>
	<path class="st2" d="M251.2,118.2c0,12.4-28.2,22.4-63,22.4s-63-10-63-22.4s28.2-22.4,63-22.4S251.2,105.8,251.2,118.2z"/>
	<path id="repo1_229_" class="st1" d="M125.2,90.3c0-12.4,28.2-22.4,63-22.4s63,10,63,22.4 M125.2,90.3v27.9c0,3,1.7,5.9,4.7,8.5
		c9.4,8.2,32,13.9,58.3,13.9c26.4,0,48.9-5.8,58.3-13.9c3-2.6,4.7-5.5,4.7-8.5V90.3"/>
	<path class="st2" d="M251.2,90.3c0,12.4-28.2,22.4-63,22.4s-63-10-63-22.4s28.2-22.4,63-22.4S251.2,77.9,251.2,90.3z"/>
	<path id="repo1_228_" class="st1" d="M125.2,62.4c0-12.4,28.2-22.4,63-22.4s63,10,63,22.4 M125.2,62.4v27.9c0,3,1.7,5.9,4.7,8.5
		c9.4,8.2,32,13.9,58.3,13.9c26.4,0,48.9-5.8,58.3-13.9c3-2.6,4.7-5.5,4.7-8.5V62.4"/>
	<path class="st2" d="M251.2,62.4c0,12.4-28.2,22.4-63,22.4s-63-10-63-22.4s28.2-22.4,63-22.4S251.2,50,251.2,62.4z"/>
	<path id="repo1_227_" class="st1" d="M125.2,34.5c0-12.4,28.2-22.4,63-22.4s63,10,63,22.4 M125.2,34.5v27.9c0,3,1.7,5.9,4.7,8.5
		c9.4,8.2,32,13.9,58.3,13.9c26.4,0,48.9-5.8,58.3-13.9c3-2.6,4.7-5.5,4.7-8.5V34.5"/>
	<path class="st3" d="M251.2,34.5c0,12.4-28.2,22.4-63,22.4s-63-10-63-22.4s28.2-22.4,63-22.4S251.2,22.1,251.2,34.5z"/>
	<path id="repo1_226_" class="st4" d="M339.2,118.2c0-12.4,28.2-22.4,63-22.4s63,10,63,22.4 M339.2,118.2v27.9c0,3,1.7,5.9,4.7,8.5
		c9.4,8.2,32,13.9,58.3,13.9c26.4,0,48.9-5.8,58.3-13.9c3-2.6,4.7-5.5,4.7-8.5v-27.9"/>
	<path class="st2" d="M465.2,118.2c0,12.4-28.2,22.4-63,22.4s-63-10-63-22.4s28.2-22.4,63-22.4S465.2,105.8,465.2,118.2z"/>
	<path id="repo1_225_" class="st4" d="M339.2,90.3c0-12.4,28.2-22.4,63-22.4s63,10,63,22.4 M339.2,90.3v27.9c0,3,1.7,5.9,4.7,8.5
		c9.4,8.2,32,13.9,58.3,13.9c26.4,0,48.9-5.8,58.3-13.9c3-2.6,4.7-5.5,4.7-8.5V90.3"/>
	<path class="st2" d="M465.2,90.3c0,12.4-28.2,22.4-63,22.4s-63-10-63-22.4s28.2-22.4,63-22.4S465.2,77.9,465.2,90.3z"/>
	<path id="repo1_224_" class="st4" d="M339.2,62.4c0-12.4,28.2-22.4,63-22.4s63,10,63,22.4 M339.2,62.4v27.9c0,3,1.7,5.9,4.7,8.5
		c9.4,8.2,32,13.9,58.3,13.9c26.4,0,48.9-5.8,58.3-13.9c3-2.6,4.7-5.5,4.7-8.5V62.4"/>
	<path class="st2" d="M465.2,62.4c0,12.4-28.2,22.4-63,22.4s-63-10-63-22.4s28.2-22.4,63-22.4S465.2,50,465.2,62.4z"/>
	<path id="repo1_223_" class="st4" d="M339.2,34.5c0-12.4,28.2-22.4,63-22.4s63,10,63,22.4 M339.2,34.5v27.9c0,3,1.7,5.9,4.7,8.5
		c9.4,8.2,32,13.9,58.3,13.9c26.4,0,48.9-5.8,58.3-13.9c3-2.6,4.7-5.5,4.7-8.5V34.5"/>
	<path class="st3" d="M465.2,34.5c0,12.4-28.2,22.4-63,22.4s-63-10-63-22.4s28.2-22.4,63-22.4S465.2,22.1,465.2,34.5z"/>
	<path id="repo1_222_" class="st5" d="M548.8,118.2c0-12.4,28.2-22.4,63-22.4s63,10,63,22.4 M548.8,118.2v27.9c0,3,1.7,5.9,4.7,8.5
		c9.4,8.2,32,13.9,58.3,13.9c26.4,0,48.9-5.8,58.3-13.9c3-2.6,4.7-5.5,4.7-8.5v-27.9"/>
	<path class="st2" d="M674.8,118.2c0,12.4-28.2,22.4-63,22.4s-63-10-63-22.4s28.2-22.4,63-22.4S674.8,105.8,674.8,118.2z"/>
	<path id="repo1_221_" class="st5" d="M548.8,90.3c0-12.4,28.2-22.4,63-22.4s63,10,63,22.4 M548.8,90.3v27.9c0,3,1.7,5.9,4.7,8.5
		c9.4,8.2,32,13.9,58.3,13.9c26.4,0,48.9-5.8,58.3-13.9c3-2.6,4.7-5.5,4.7-8.5V90.3"/>
	<path class="st2" d="M674.8,90.3c0,12.4-28.2,22.4-63,22.4s-63-10-63-22.4s28.2-22.4,63-22.4S674.8,77.9,674.8,90.3z"/>
	<path id="repo1_220_" class="st5" d="M548.8,62.4c0-12.4,28.2-22.4,63-22.4s63,10,63,22.4 M548.8,62.4v27.9c0,3,1.7,5.9,4.7,8.5
		c9.4,8.2,32,13.9,58.3,13.9c26.4,0,48.9-5.8,58.3-13.9c3-2.6,4.7-5.5,4.7-8.5V62.4"/>
	<path class="st2" d="M674.8,62.4c0,12.4-28.2,22.4-63,22.4s-63-10-63-22.4S577,40,611.8,40S674.8,50,674.8,62.4z"/>
	<path id="repo1_219_" class="st5" d="M548.8,34.5c0-12.4,28.2-22.4,63-22.4s63,10,63,22.4 M548.8,34.5v27.9c0,3,1.7,5.9,4.7,8.5
		c9.4,8.2,32,13.9,58.3,13.9c26.4,0,48.9-5.8,58.3-13.9c3-2.6,4.7-5.5,4.7-8.5V34.5"/>
	<path class="st3" d="M674.8,34.5c0,12.4-28.2,22.4-63,22.4s-63-10-63-22.4s28.2-22.4,63-22.4S674.8,22.1,674.8,34.5z"/>
	<path class="st6" d="M594.8,393.1c3.1,6.8,9.9,11.2,17.3,11.2c7.5,0,14.3-4.4,17.4-11.3"/>
	<path class="st5" d="M611.7,437.4c0,0,27.4,0.8,37.7-5.2c17-9.9-0.3-30.2-13.7-33.6c-4.1,7.7-13.3,13-24,13h0.3
		c-10.7,0-19.8-5.4-24-13c-13.4,3.4-30.7,23.8-13.7,33.6c10.3,6,37.7,5.2,37.7,5.2"/>
	<circle class="st5" cx="612.1" cy="367.7" r="23"/>
	<path class="st3" d="M596.5,350.7c2.6,20,34.1,7.2,38,21.8c-2.2,10.4-11.4,18.2-22.5,18.2c-12.7,0-23-10.3-23-23
		c0-1.3,0.1-2.6,0.3-3.9C590.5,363.8,597.4,367.7,596.5,350.7z"/>
	<path class="st6" d="M624.6,387.9v10.6 M600,398.6v-10.3 M385.1,391.4c3.1,6.8,9.9,11.2,17.3,11.2c7.5,0,14.3-4.4,17.4-11.3"/>
	<path class="st4" d="M402,435.7c0,0,27.4,0.8,37.7-5.2c17-9.9-0.3-30.2-13.7-33.6c-4.1,7.7-13.3,13-24,13h0.3
		c-10.7,0-19.8-5.4-24-13c-13.4,3.4-30.7,23.8-13.7,33.6c10.3,6,37.7,5.2,37.7,5.2"/>
	<circle class="st4" cx="402.5" cy="366" r="23"/>
	<path class="st3" d="M413.1,353.8c2.6,20,7.9,2.4,11.8,17c-2.2,10.4-11.4,18.2-22.5,18.2c-12.7,0-23-10.3-23-23
		c0-1.3,0.1-2.6,0.3-3.9C380.8,362.2,406,373.1,413.1,353.8L413.1,353.8z"/>
	<path class="st6" d="M415,386.2v10.6 M390.4,396.9v-10.3"/>
	<path class="st7" d="M170.6,391.4c3.1,6.8,9.9,11.2,17.3,11.2c7.5,0,14.3-4.4,17.4-11.3"/>
	<path class="st1" d="M188,435.7c0,0,27.4,0.8,37.7-5.2c17-9.9-0.3-30.2-13.7-33.6c-4.1,7.7-13.3,13-24,13h0.3
		c-10.7,0-19.8-5.4-24-13c-13.4,3.4-30.7,23.8-13.7,33.6c10.3,6,37.7,5.2,37.7,5.2"/>
	<circle class="st1" cx="187.9" cy="366" r="23"/>
	<path class="st7" d="M198,345.3c-6.7,17.2-19.4,0.5-32.6,25.5c2.2,10.4,11.4,18.2,22.5,18.2c12.7,0,23-10.3,23-23
		C210.9,364.6,199.8,360,198,345.3z M200.5,385.2v11.6 M175.9,396.9v-11.3"/>
	<path class="st1" d="M164.9,366.5c0,0,0,10.6,4.6,14.5c-3.6,1.7-11.6-0.9-10.5-1.7C163.5,376.1,164.9,366.5,164.9,366.5z
		 M210.9,366c0,0-0.2,11.1-4.8,15c3.6,1.7,11.6-0.9,10.5-1.7C212.1,376.1,210.9,366,210.9,366z"/>
	<path class="st8" d="M188.2,210.9V301 M199,292.3l-10.8,10.8l-10.9-10.8 M251.2,209l82.2,82.2 M334.8,277.3v15.3h-15.4
		 M177.3,219.9l10.9-10.9l10.8,10.9"/>
	<path class="st9" d="M402.2,210.9V300 M413.1,292.3l-10.9,10.8l-10.9-10.8 M391.3,219.9l10.9-10.9l10.9,10.9"/>
	<path class="st10" d="M612.1,210.9V300"/>
	<path class="st11" d="M623,292.3l-10.9,10.8l-10.9-10.8 M601.2,219.9l10.9-10.9l10.9,10.9"/>
	<path class="st9" d="M334.8,209l-82.2,82.2 M251.2,277.3v15.3h15.3"/>
	<path class="st10" d="M548.8,209l-82.2,82.2"/>
	<path class="st11" d="M465.2,277.3v15.3h15.4"/>
	<path class="st9" d="M465.2,209l81.2,81.2 M548.8,277.3v15.3h-15.3"/>
</g>
</svg>
