<?xml version="1.0" encoding="utf-8"?>
<!-- Generator: Adobe Illustrator 19.2.0, SVG Export Plug-In . SVG Version: 6.00 Build 0)  -->
<svg version="1.1" id="Calque_1" xmlns="http://www.w3.org/2000/svg" xmlns:xlink="http://www.w3.org/1999/xlink" x="0px" y="0px"
	 viewBox="0 0 800 219" style="enable-background:new 0 0 800 219;" xml:space="preserve">
<style type="text/css">
	.st0{fill:#FFFFFF;stroke:#000000;stroke-miterlimit:10;}
	.st1{fill:none;stroke:#404040;stroke-width:4;stroke-miterlimit:10;}
	.st2{fill:#B18BE8;stroke:#404040;stroke-width:4;stroke-miterlimit:10;}
	.st3{fill:#4ED1A1;stroke:#404040;stroke-width:4;stroke-miterlimit:10;}
	.st4{fill:#B3E3FF;stroke:#404040;stroke-width:4;stroke-miterlimit:10;}
</style>
<rect class="st0" width="800" height="219"/>
<g id="feature_x5F_branch_x5F_workflow_x5F_1">
	<path class="st1" d="M264.5,66.9c0,22.6-18.4,41-41,41 M264.5,66.9c0-22.6,18.4-41,41-41h160.4"/>
	<circle class="st2" cx="348.9" cy="25.9" r="21"/>
	<circle class="st2" cx="444.9" cy="25.9" r="21"/>
	<path class="st1" d="M545.2,148.9c0-22.6-18.4-41-41-41 M545.2,148.9c0,22.6,18.4,41,41,41h160.4"/>
	<circle class="st3" cx="629.5" cy="189.9" r="21"/>
	<circle class="st3" cx="725.5" cy="189.9" r="21"/>
	<path class="st4" d="M53.5,107.9h555"/>
	<circle class="st4" cx="74.5" cy="107.9" r="21"/>
	<circle class="st4" cx="170.5" cy="107.9" r="21"/>
	<circle class="st4" cx="347.9" cy="107.9" r="21"/>
	<circle class="st4" cx="444.9" cy="107.9" r="21"/>
	<circle class="st4" cx="629.5" cy="107.9" r="21"/>
</g>
</svg>
